<svg width="89" height="49" viewBox="0 0 89 49" fill="none" xmlns="http://www.w3.org/2000/svg">
<path d="M0 48.5833V39.75C2.79722 39.75 4.87747 39.0139 6.24075 37.5417C7.60108 36.0694 10.4528 35.3333 14.7958 35.3333C19.1389 35.3333 21.9906 36.0694 23.3509 37.5417C24.7142 39.0139 26.7208 39.75 29.3708 39.75C32.1681 39.75 34.2468 39.0139 35.6072 37.5417C36.9704 36.0694 39.8236 35.3333 44.1667 35.3333C48.3625 35.3333 51.2157 36.0694 52.7262 37.5417C54.2337 39.0139 56.3125 39.75 58.9625 39.75C61.7597 39.75 63.8032 39.0139 65.0928 37.5417C66.3796 36.0694 69.1945 35.3333 73.5375 35.3333C77.8806 35.3333 80.7323 36.0694 82.0926 37.5417C83.4559 39.0139 85.5361 39.75 88.3333 39.75V48.5833C84.1375 48.5833 81.2843 47.8472 79.7738 46.375C78.2663 44.9028 76.1875 44.1667 73.5375 44.1667C70.8875 44.1667 68.8823 44.9028 67.522 46.375C66.1587 47.8472 63.3056 48.5833 58.9625 48.5833C54.7667 48.5833 51.915 47.8472 50.4074 46.375C48.8969 44.9028 46.8167 44.1667 44.1667 44.1667C41.3694 44.1667 39.2907 44.9028 37.9303 46.375C36.5671 47.8472 33.7139 48.5833 29.3708 48.5833C25.0278 48.5833 22.2129 47.8472 20.9262 46.375C19.6365 44.9028 17.5931 44.1667 14.7958 44.1667C11.9986 44.1667 9.91983 44.9028 8.5595 46.375C7.19622 47.8472 4.34306 48.5833 0 48.5833ZM0 30.9167V22.0833C2.79722 22.0833 4.87747 21.3472 6.24075 19.875C7.60108 18.4028 10.4528 17.6667 14.7958 17.6667C18.9917 17.6667 21.808 18.4028 23.2449 19.875C24.6789 21.3472 26.7208 22.0833 29.3708 22.0833C32.1681 22.0833 34.2468 21.3472 35.6072 19.875C36.9704 18.4028 39.8236 17.6667 44.1667 17.6667C48.3625 17.6667 51.1965 18.4028 52.6688 19.875C54.141 21.3472 56.1653 22.0833 58.7417 22.0833C61.5389 22.0833 63.6177 21.3472 64.978 19.875C66.3413 18.4028 69.1945 17.6667 73.5375 17.6667C77.7333 17.6667 80.5865 18.4028 82.097 19.875C83.6046 21.3472 85.6833 22.0833 88.3333 22.0833V30.9167C83.9903 30.9167 81.1018 30.1806 79.6678 28.7083C78.2309 27.2361 76.1875 26.5 73.5375 26.5C70.8875 26.5 68.8823 27.2361 67.522 28.7083C66.1587 30.1806 63.3056 30.9167 58.9625 30.9167C54.7667 30.9167 51.915 30.1806 50.4074 28.7083C48.8969 27.2361 46.8167 26.5 44.1667 26.5C41.3694 26.5 39.3275 27.2361 38.0408 28.7083C36.7511 30.1806 33.9347 30.9167 29.5917 30.9167C25.2486 30.9167 22.3601 30.1806 20.9262 28.7083C19.4893 27.2361 17.4458 26.5 14.7958 26.5C12.1458 26.5 10.0671 27.2361 8.5595 28.7083C7.049 30.1806 4.19583 30.9167 0 30.9167ZM0 13.25V4.41667C2.79722 4.41667 4.87747 3.68056 6.24075 2.20833C7.60108 0.736111 10.4528 0 14.7958 0C18.9917 0 21.808 0.736111 23.2449 2.20833C24.6789 3.68056 26.7208 4.41667 29.3708 4.41667C32.1681 4.41667 34.2468 3.68056 35.6072 2.20833C36.9704 0.736111 39.8236 0 44.1667 0C48.3625 0 51.1965 0.736111 52.6688 2.20833C54.141 3.68056 56.1653 4.41667 58.7417 4.41667C61.5389 4.41667 63.6177 3.68056 64.978 2.20833C66.3413 0.736111 69.1945 0 73.5375 0C77.7333 0 80.5865 0.736111 82.097 2.20833C83.6046 3.68056 85.6833 4.41667 88.3333 4.41667V13.25C83.9903 13.25 81.1018 12.5139 79.6678 11.0417C78.2309 9.56944 76.1875 8.83333 73.5375 8.83333C70.8875 8.83333 68.8823 9.56944 67.522 11.0417C66.1587 12.5139 63.3056 13.25 58.9625 13.25C54.7667 13.25 51.915 12.5139 50.4074 11.0417C48.8969 9.56944 46.8167 8.83333 44.1667 8.83333C41.3694 8.83333 39.3275 9.56944 38.0408 11.0417C36.7511 12.5139 33.9347 13.25 29.5917 13.25C25.2486 13.25 22.3601 12.5139 20.9262 11.0417C19.4893 9.56944 17.4458 8.83333 14.7958 8.83333C12.1458 8.83333 10.0671 9.56944 8.5595 11.0417C7.049 12.5139 4.19583 13.25 0 13.25Z" fill="black"/>
</svg>
