<svg width="64" height="35" viewBox="0 0 64 35" fill="none" xmlns="http://www.w3.org/2000/svg">
<path d="M0 35V28.6364C2.01515 28.6364 3.51379 28.1061 4.49591 27.0455C5.47591 25.9848 7.5303 25.4545 10.6591 25.4545C13.7879 25.4545 15.8423 25.9848 16.8223 27.0455C17.8044 28.1061 19.25 28.6364 21.1591 28.6364C23.1742 28.6364 24.6718 28.1061 25.6518 27.0455C26.6339 25.9848 28.6894 25.4545 31.8182 25.4545C34.8409 25.4545 36.8964 25.9848 37.9845 27.0455C39.0706 28.1061 40.5682 28.6364 42.4773 28.6364C44.4924 28.6364 45.9646 28.1061 46.8936 27.0455C47.8206 25.9848 49.8485 25.4545 52.9773 25.4545C56.1061 25.4545 58.1605 25.9848 59.1405 27.0455C60.1226 28.1061 61.6212 28.6364 63.6364 28.6364V35C60.6136 35 58.5582 34.4697 57.47 33.4091C56.3839 32.3485 54.8864 31.8182 52.9773 31.8182C51.0682 31.8182 49.6236 32.3485 48.6436 33.4091C47.6615 34.4697 45.6061 35 42.4773 35C39.4546 35 37.4002 34.4697 36.3141 33.4091C35.2259 32.3485 33.7273 31.8182 31.8182 31.8182C29.803 31.8182 28.3055 32.3485 27.3255 33.4091C26.3433 34.4697 24.2879 35 21.1591 35C18.0303 35 16.0024 34.4697 15.0755 33.4091C14.1464 32.3485 12.6742 31.8182 10.6591 31.8182C8.64394 31.8182 7.14636 32.3485 6.16636 33.4091C5.18424 34.4697 3.12879 35 0 35ZM0 22.2727V15.9091C2.01515 15.9091 3.51379 15.3788 4.49591 14.3182C5.47591 13.2576 7.5303 12.7273 10.6591 12.7273C13.6818 12.7273 15.7108 13.2576 16.7459 14.3182C17.7789 15.3788 19.25 15.9091 21.1591 15.9091C23.1742 15.9091 24.6718 15.3788 25.6518 14.3182C26.6339 13.2576 28.6894 12.7273 31.8182 12.7273C34.8409 12.7273 36.8826 13.2576 37.9432 14.3182C39.0038 15.3788 40.4621 15.9091 42.3182 15.9091C44.3333 15.9091 45.8309 15.3788 46.8109 14.3182C47.793 13.2576 49.8485 12.7273 52.9773 12.7273C56 12.7273 58.0555 13.2576 59.1436 14.3182C60.2297 15.3788 61.7273 15.9091 63.6364 15.9091V22.2727C60.5076 22.2727 58.4267 21.7424 57.3936 20.6818C56.3585 19.6212 54.8864 19.0909 52.9773 19.0909C51.0682 19.0909 49.6236 19.6212 48.6436 20.6818C47.6615 21.7424 45.6061 22.2727 42.4773 22.2727C39.4546 22.2727 37.4002 21.7424 36.3141 20.6818C35.2259 19.6212 33.7273 19.0909 31.8182 19.0909C29.803 19.0909 28.332 19.6212 27.405 20.6818C26.4759 21.7424 24.447 22.2727 21.3182 22.2727C18.1894 22.2727 16.1085 21.7424 15.0755 20.6818C14.0403 19.6212 12.5682 19.0909 10.6591 19.0909C8.75 19.0909 7.25242 19.6212 6.16636 20.6818C5.07818 21.7424 3.02273 22.2727 0 22.2727ZM0 9.54545V3.18182C2.01515 3.18182 3.51379 2.65152 4.49591 1.59091C5.47591 0.530303 7.5303 0 10.6591 0C13.6818 0 15.7108 0.530303 16.7459 1.59091C17.7789 2.65152 19.25 3.18182 21.1591 3.18182C23.1742 3.18182 24.6718 2.65152 25.6518 1.59091C26.6339 0.530303 28.6894 0 31.8182 0C34.8409 0 36.8826 0.530303 37.9432 1.59091C39.0038 2.65152 40.4621 3.18182 42.3182 3.18182C44.3333 3.18182 45.8309 2.65152 46.8109 1.59091C47.793 0.530303 49.8485 0 52.9773 0C56 0 58.0555 0.530303 59.1436 1.59091C60.2297 2.65152 61.7273 3.18182 63.6364 3.18182V9.54545C60.5076 9.54545 58.4267 9.01515 57.3936 7.95455C56.3585 6.89394 54.8864 6.36364 52.9773 6.36364C51.0682 6.36364 49.6236 6.89394 48.6436 7.95455C47.6615 9.01515 45.6061 9.54545 42.4773 9.54545C39.4546 9.54545 37.4002 9.01515 36.3141 7.95455C35.2259 6.89394 33.7273 6.36364 31.8182 6.36364C29.803 6.36364 28.332 6.89394 27.405 7.95455C26.4759 9.01515 24.447 9.54545 21.3182 9.54545C18.1894 9.54545 16.1085 9.01515 15.0755 7.95455C14.0403 6.89394 12.5682 6.36364 10.6591 6.36364C8.75 6.36364 7.25242 6.89394 6.16636 7.95455C5.07818 9.01515 3.02273 9.54545 0 9.54545Z" fill="black"/>
</svg>
