<svg width="60" height="60" viewBox="0 0 60 60" fill="none" xmlns="http://www.w3.org/2000/svg">
<g clip-path="url(#clip0_2_219)">
<path d="M43.2889 0.000125611C46.8305 6.02823 47.4996 12.9546 45.72 19.2134C42.0391 15.6951 37.3218 12.8144 32.4568 10.1959C39.7284 19.7246 39.7575 26.3621 39.1571 33.2502C36.0627 22.3117 24.9352 16.6764 15.3917 20.4271C22.1252 20.1481 28.475 24.439 30.3241 31.0785C32.4481 38.7067 27.9787 46.7834 20.1243 48.4378C16.3306 49.2372 12.7214 48.57 9.53984 46.902C9.56497 46.9028 9.58961 46.9015 9.61449 46.902C4.85287 44.3147 3.44575 39.8992 5.31373 36.773C5.50188 36.3407 5.76995 35.9209 6.11117 35.5439C7.3187 34.2091 8.99766 33.9276 9.86208 34.9155C10.7268 35.9033 10.449 37.7869 9.24148 39.1217C8.39641 40.0559 7.31945 40.4758 6.45302 40.3038C6.90924 41.5535 7.74827 42.7722 9.02568 43.7994C13.9423 42.3918 15.5975 36.6993 13.2162 32.5078C17.9135 35.9883 16.6064 42.9405 11.3624 45.213C12.0867 45.5389 12.8922 45.8179 13.7818 46.0379C16.8348 44.6767 19.3602 41.8019 20.372 38.0534C22.0464 31.8499 18.9438 25.6108 13.444 24.1186C9.90016 23.1571 6.2268 24.4056 3.61329 27.072C1.89952 28.6987 0.710085 30.8565 0.219934 33.5405L0.259397 33.4934C0.0339277 34.6127 -0.0417315 35.7252 0.023622 36.8042C-0.479851 49.248 7.0931 55.5229 20.0343 59.0338C28.0898 61.2187 36.75 59.2635 43.1355 54.5212C55.4034 46.4824 62.1383 30.8771 58.4254 16.1575C57.7827 18.6327 56.8577 21.0259 55.6684 23.2898C56.1906 14.1437 51.6938 5.01902 43.2889 0V0.000125611ZM14.7872 10.5454C8.04526 10.4989 1.55817 14.5051 0.208371 27.5906C2.03864 24.9366 4.72429 23.024 7.89029 21.9782C8.74378 15.1115 14.7568 11.0787 21.7582 11.8689C19.5441 11.0749 17.1495 10.5616 14.787 10.5455L14.7872 10.5454ZM50.8729 15.9416C56.3286 26.8345 49.696 43.8495 40.2058 50.8648C34.2637 55.8159 25.0204 57.744 13.6991 53.6142C44.5758 56.3196 49.9936 34.7072 39.978 17.7917C45.2795 23.1934 47.6092 29.5169 47.503 35.4417C50.2557 29.2565 51.5675 22.2834 50.8729 15.9417V15.9416ZM11.2366 26.1179C15.5924 26.1815 19.6222 29.647 18.2156 37.6528C18.1033 30.8673 9.06515 23.5383 2.34078 34.0003C2.76683 29.0002 7.14489 26.0578 11.2366 26.1176V26.1179ZM34.4205 31.3374C41.6112 37.1918 36.2156 50.9098 22.0844 50.5467C29.3837 49.5119 37.7265 39.3263 34.4207 31.3374H34.4205Z" fill="black"/>
</g>
<defs>
<clipPath id="clip0_2_219">
<rect width="60" height="60" fill="white"/>
</clipPath>
</defs>
</svg>
