<svg width="90" height="107" viewBox="0 0 90 107" fill="none" xmlns="http://www.w3.org/2000/svg">
<path d="M11.25 61.875C11.25 66.75 12.2344 71.3662 14.2031 75.7237C16.1719 80.085 18.9844 83.9062 22.6406 87.1875C22.5469 86.7188 22.5 86.2969 22.5 85.9219V84.6562C22.5 81.6562 23.0625 78.8437 24.1875 76.2187C25.3125 73.5937 26.9531 71.2031 29.1094 69.0469L45 53.4375L60.8906 69.0469C63.0469 71.2031 64.6875 73.5937 65.8125 76.2187C66.9375 78.8437 67.5 81.6562 67.5 84.6562V85.9219C67.5 86.2969 67.4531 86.7188 67.3594 87.1875C71.0156 83.9062 73.8281 80.085 75.7969 75.7237C77.7656 71.3662 78.75 66.75 78.75 61.875C78.75 57.1875 77.8838 52.7569 76.1513 48.5831C74.415 44.4131 71.9063 40.6875 68.625 37.4062C66.75 38.625 64.7812 39.5381 62.7187 40.1456C60.6562 40.7569 58.5469 41.0625 56.3906 41.0625C50.5781 41.0625 45.54 39.1406 41.2763 35.2969C37.0088 31.4531 34.5469 26.7188 33.8906 21.0938C30.2344 24.1875 27 27.3975 24.1875 30.7237C21.375 34.0537 19.0088 37.4287 17.0888 40.8488C15.165 44.2725 13.7119 47.7656 12.7294 51.3281C11.7431 54.8906 11.25 58.4062 11.25 61.875ZM45 69.1875L36.9844 77.0625C35.9531 78.0938 35.1562 79.2656 34.5937 80.5781C34.0312 81.8906 33.75 83.25 33.75 84.6562C33.75 87.6562 34.8525 90.2344 37.0575 92.3906C39.2588 94.5469 41.9062 95.625 45 95.625C48.0938 95.625 50.7431 94.5469 52.9481 92.3906C55.1494 90.2344 56.25 87.6562 56.25 84.6562C56.25 83.1562 55.9688 81.7725 55.4063 80.505C54.8438 79.2412 54.0469 78.0938 53.0156 77.0625L45 69.1875ZM45 0V18.5625C45 21.75 46.1025 24.4219 48.3075 26.5781C50.5088 28.7344 53.2031 29.8125 56.3906 29.8125C58.0781 29.8125 59.6494 29.4619 61.1044 28.7606C62.5556 28.0556 63.8438 27 64.9688 25.5938L67.5 22.5C74.4375 26.4375 79.9219 31.9219 83.9531 38.9531C87.9844 45.9844 90 53.625 90 61.875C90 74.4375 85.6406 85.0781 76.9219 93.7969C68.2031 102.516 57.5625 106.875 45 106.875C32.4375 106.875 21.7969 102.516 13.0781 93.7969C4.35937 85.0781 0 74.4375 0 61.875C0 49.7812 4.05563 38.2969 12.1669 27.4219C20.2744 16.5469 31.2188 7.40625 45 0Z" fill="black"/>
</svg>
