<svg width="40" height="48" viewBox="0 0 40 48" fill="none" xmlns="http://www.w3.org/2000/svg">
<path d="M5 27.5C5 29.6667 5.4375 31.7183 6.3125 33.655C7.1875 35.5933 8.4375 37.2917 10.0625 38.75C10.0208 38.5417 10 38.3542 10 38.1875V37.625C10 36.2917 10.25 35.0417 10.75 33.875C11.25 32.7083 11.9792 31.6458 12.9375 30.6875L20 23.75L27.0625 30.6875C28.0208 31.6458 28.75 32.7083 29.25 33.875C29.75 35.0417 30 36.2917 30 37.625V38.1875C30 38.3542 29.9792 38.5417 29.9375 38.75C31.5625 37.2917 32.8125 35.5933 33.6875 33.655C34.5625 31.7183 35 29.6667 35 27.5C35 25.4167 34.615 23.4475 33.845 21.5925C33.0733 19.7392 31.9583 18.0833 30.5 16.625C29.6667 17.1667 28.7917 17.5725 27.875 17.8425C26.9583 18.1142 26.0208 18.25 25.0625 18.25C22.4792 18.25 20.24 17.3958 18.345 15.6875C16.4483 13.9792 15.3542 11.875 15.0625 9.375C13.4375 10.75 12 12.1767 10.75 13.655C9.5 15.135 8.44833 16.635 7.595 18.155C6.74 19.6767 6.09417 21.2292 5.6575 22.8125C5.21917 24.3958 5 25.9583 5 27.5ZM20 30.75L16.4375 34.25C15.9792 34.7083 15.625 35.2292 15.375 35.8125C15.125 36.3958 15 37 15 37.625C15 38.9583 15.49 40.1042 16.47 41.0625C17.4483 42.0208 18.625 42.5 20 42.5C21.375 42.5 22.5525 42.0208 23.5325 41.0625C24.5108 40.1042 25 38.9583 25 37.625C25 36.9583 24.875 36.3433 24.625 35.78C24.375 35.2183 24.0208 34.7083 23.5625 34.25L20 30.75ZM20 0V8.25C20 9.66667 20.49 10.8542 21.47 11.8125C22.4483 12.7708 23.6458 13.25 25.0625 13.25C25.8125 13.25 26.5108 13.0942 27.1575 12.7825C27.8025 12.4692 28.375 12 28.875 11.375L30 10C33.0833 11.75 35.5208 14.1875 37.3125 17.3125C39.1042 20.4375 40 23.8333 40 27.5C40 33.0833 38.0625 37.8125 34.1875 41.6875C30.3125 45.5625 25.5833 47.5 20 47.5C14.4167 47.5 9.6875 45.5625 5.8125 41.6875C1.9375 37.8125 0 33.0833 0 27.5C0 22.125 1.8025 17.0208 5.4075 12.1875C9.01083 7.35417 13.875 3.29167 20 0Z" fill="black"/>
</svg>
