<svg width="120" height="120" viewBox="0 0 120 120" fill="none" xmlns="http://www.w3.org/2000/svg">
<path d="M86.5777 0.000251221C93.661 12.0565 94.9993 25.9091 91.44 38.4268C84.0782 31.3903 74.6437 25.6289 64.9136 20.3918C79.4567 39.4491 79.515 52.7241 78.3143 66.5004C72.1253 44.6233 49.8705 33.3529 30.7835 40.8542C44.2503 40.2962 56.95 48.8781 60.6482 62.1569C64.8962 77.4134 55.9574 93.5668 40.2487 96.8757C32.6611 98.4743 25.4428 97.1401 19.0797 93.8041C19.1299 93.8056 19.1792 93.8031 19.229 93.8041C9.70573 88.6293 6.89151 79.7983 10.6275 73.546C11.0038 72.6813 11.5399 71.8418 12.2223 71.0877C14.6374 68.4183 17.9953 67.8552 19.7242 69.8309C21.4535 71.8066 20.898 75.5737 18.483 78.2434C16.7928 80.1118 14.6389 80.9515 12.906 80.6077C13.8185 83.107 15.4965 85.5444 18.0514 87.5988C27.8845 84.7835 31.195 73.3987 26.4324 65.0156C35.827 71.9765 33.2129 85.881 22.7249 90.426C24.1735 91.0778 25.7844 91.6358 27.5636 92.0757C33.6696 89.3535 38.7204 83.6039 40.7441 76.1068C44.0927 63.6997 37.8876 51.2215 26.8879 48.2371C19.8003 46.3142 12.4536 48.8112 7.22657 54.1441C3.79903 57.3974 1.42017 61.713 0.439867 67.081L0.518794 66.9868C0.0678553 69.2254 -0.0834629 71.4504 0.047244 73.6083C-0.959702 98.4959 14.1862 111.046 40.0687 118.068C56.1796 122.437 73.5 118.527 86.2711 109.042C110.807 92.9648 124.277 61.7542 116.851 32.315C115.565 37.2655 113.715 42.0518 111.337 46.5797C112.381 28.2875 103.388 10.038 86.5777 0V0.000251221ZM29.5744 21.0908C16.0905 20.9978 3.11634 29.0101 0.416742 55.1812C4.07729 49.8732 9.44859 46.048 15.7806 43.9565C17.4876 30.223 29.5136 22.1573 43.5163 23.7379C39.0881 22.1498 34.299 21.1232 29.5739 21.0911L29.5744 21.0908ZM101.746 31.8832C112.657 53.669 99.392 87.699 80.4116 101.73C68.5274 111.632 50.0409 115.488 27.3982 107.228C89.1516 112.639 99.9873 69.4144 79.9559 35.5834C90.559 46.3869 95.2185 59.0338 95.0061 70.8834C100.511 58.5129 103.135 44.5668 101.746 31.8834V31.8832ZM22.4733 52.2358C31.1849 52.3629 39.2445 59.2939 36.4313 75.3055C36.2066 61.7346 18.1303 47.0766 4.68156 68.0005C5.53367 58.0004 14.2898 52.1156 22.4733 52.2353V52.2358ZM68.8411 62.6747C83.2223 74.3835 72.4312 101.82 44.1689 101.093C58.7673 99.0238 75.4531 78.6526 68.8413 62.6747H68.8411Z" fill="black"/>
</svg>
